<?xml version="1.0" standalone="no"?>
<!DOCTYPE svg PUBLIC "-//W3C//DTD SVG 20010904//EN"
 "http://www.w3.org/TR/2001/REC-SVG-20010904/DTD/svg10.dtd">
<svg version="1.0" xmlns="http://www.w3.org/2000/svg"
 width="500.000000pt" height="500.000000pt" viewBox="0 0 500.000000 500.000000"
 preserveAspectRatio="xMidYMid meet">
<metadata>
Created by potrace 1.14, written by Peter Selinger 2001-2017
</metadata>
<g transform="translate(0.000000,500.000000) scale(0.100000,-0.100000)"
fill="#000000" stroke="none">
<path d="M2375 4150 c-730 -50 -1389 -274 -1840 -625 -109 -85 -260 -245 -327
-346 -138 -208 -198 -398 -198 -624 0 -176 45 -342 132 -489 237 -403 651
-643 1275 -739 l143 -23 -45 -88 c-53 -105 -106 -180 -214 -301 -43 -49 -78
-91 -77 -93 6 -5 360 158 423 196 103 61 177 126 229 203 l48 69 156 0 c676 0
1438 216 2035 576 481 291 732 558 816 870 30 110 31 305 1 416 -66 246 -213
454 -435 620 -206 152 -453 249 -778 302 -450 74 -953 102 -1344 76z m-128
-251 c150 -76 258 -275 236 -435 -3 -24 -3 -44 1 -44 4 0 30 18 58 41 73 57
267 150 405 194 65 20 141 45 168 55 45 17 67 18 210 10 97 -5 182 -15 215
-25 160 -49 306 -168 374 -305 105 -214 83 -447 -72 -753 -155 -304 -356 -547
-652 -784 -336 -269 -674 -473 -784 -473 -46 0 -98 23 -136 59 -32 30 -40 45
-40 73 0 32 3 36 54 57 55 22 134 78 265 186 81 67 78 55 47 190 -53 234 23
630 230 1198 58 158 60 167 43 167 -23 0 -196 -73 -266 -112 -63 -36 -72 -45
-75 -72 -3 -28 -6 -31 -36 -29 -21 1 -48 13 -71 31 l-37 30 -55 -91 c-30 -50
-63 -106 -74 -125 l-20 -33 25 -17 c13 -9 52 -44 86 -77 77 -77 99 -133 99
-255 0 -246 -162 -469 -503 -693 -193 -127 -375 -207 -471 -207 -84 0 -153 58
-208 178 -70 150 -23 582 102 942 67 193 178 441 241 542 13 21 22 38 18 38
-12 0 -181 -114 -264 -179 -90 -70 -252 -227 -310 -300 -33 -43 -33 -44 -10
-36 14 4 43 8 65 9 36 1 40 -2 43 -26 6 -53 -118 -158 -188 -158 -45 0 -123
47 -150 92 -66 107 -42 209 91 388 342 465 861 804 1203 786 64 -4 90 -10 143
-37z"/>
<path d="M2050 3576 c-103 -35 -360 -162 -360 -177 0 -5 8 -9 19 -9 25 0 68
-35 86 -70 30 -58 19 -119 -76 -435 -100 -332 -198 -748 -216 -915 l-6 -64 41
25 c121 71 362 301 479 457 61 80 147 235 137 245 -9 9 -110 -31 -191 -75 -55
-30 -79 -38 -101 -33 -75 16 -152 100 -152 165 0 30 17 61 97 175 247 354 349
546 369 696 8 61 6 61 -126 15z"/>
<path d="M3284 3324 c-147 -322 -279 -692 -338 -952 -30 -128 -59 -293 -53
-298 7 -7 332 331 418 434 207 249 353 541 366 733 10 144 2 150 -209 157
l-147 4 -37 -78z"/>
</g>
</svg>
